{"asset":{"version":"2.0","generator":"Blockbench 4.8.1 glTF exporter"},"scenes":[{"nodes":[1],"name":"blockbench_export"}],"scene":0,"nodes":[{"name":"croton","mesh":0},{"children":[0]}],"bufferViews":[{"buffer":0,"byteOffset":0,"byteLength":7464,"target":34962,"byteStride":12},{"buffer":0,"byteOffset":7464,"byteLength":7464,"target":34962,"byteStride":12},{"buffer":0,"byteOffset":14928,"byteLength":4976,"target":34962,"byteStride":8},{"buffer":0,"byteOffset":19904,"byteLength":1824,"target":34963}],"buffers":[{"byteLength":21728,"uri":"data:application/octet-stream;base64,"}],"accessors":[{"bufferView":0,"componentType":5126,"count":622,"max":[0.681618332862854,1.5302246809005737,0.579831600189209],"min":[-0.681618332862854,-0.0017627018969506025,-0.6875],"type":"VEC3"},{"bufferView":1,"componentType":5126,"count":622,"max":[0.9735988974571228,1,1],"min":[-0.9735988974571228,-1,-0.9735988974571228],"type":"VEC3"},{"bufferView":2,"componentType":5126,"count":622,"max":[0.9131706357002258,1.015625],"min":[0,0],"type":"VEC2"},{"bufferView":3,"componentType":5123,"count":912,"max":[621],"min":[0],"type":"SCALAR"}],"materials":[{"pbrMetallicRoughness":{"metallicFactor":0,"roughnessFactor":1,"baseColorTexture":{"index":0}},"alphaMode":"MASK","alphaCutoff":0.05,"doubleSided":true}],"textures":[{"sampler":0,"source":0,"name":"croton_amberglow.png"}],"samplers":[{"magFilter":9728,"minFilter":9728,"wrapS":33071,"wrapT":33071}],"images":[{"mimeType":"image/png","uri":"data:image/png;base64,"}],"meshes":[{"primitives":[{"mode":4,"attributes":{"POSITION":0,"NORMAL":1,"TEXCOORD_0":2},"indices":3,"material":0}]}]}