{"asset":{"version":"2.0","generator":"Blockbench 4.8.3 glTF exporter"},"scenes":[{"nodes":[1],"name":"blockbench_export"}],"scene":0,"nodes":[{"name":"tube","mesh":0},{"children":[0]}],"bufferViews":[{"buffer":0,"byteOffset":0,"byteLength":13632,"target":34962,"byteStride":12},{"buffer":0,"byteOffset":13632,"byteLength":13632,"target":34962,"byteStride":12},{"buffer":0,"byteOffset":27264,"byteLength":9088,"target":34962,"byteStride":8},{"buffer":0,"byteOffset":36352,"byteLength":3324,"target":34963}],"buffers":[{"byteLength":39676,"uri":"data:application/octet-stream;base64,"}],"accessors":[{"bufferView":0,"componentType":5126,"count":1136,"max":[0.5832410454750061,2.4035279750823975,0.5056086778640747],"min":[-0.5586141347885132,0,-0.6399241089820862],"type":"VEC3"},{"bufferView":1,"componentType":5126,"count":1136,"max":[1,1,1],"min":[-1,-1,-1],"type":"VEC3"},{"bufferView":2,"componentType":5126,"count":1136,"max":[0.4527832567691803,0.672238290309906],"min":[0,0],"type":"VEC2"},{"bufferView":3,"componentType":5123,"count":1662,"max":[1135],"min":[0],"type":"SCALAR"}],"materials":[{"pbrMetallicRoughness":{"metallicFactor":0,"roughnessFactor":1,"baseColorTexture":{"index":0}},"alphaMode":"MASK","alphaCutoff":0.05,"doubleSided":true}],"textures":[{"sampler":0,"source":0,"name":"ficus_lyrata_beige.png"}],"samplers":[{"magFilter":9728,"minFilter":9728,"wrapS":33071,"wrapT":33071}],"images":[{"mimeType":"image/png","uri":"data:image/png;base64,"}],"meshes":[{"primitives":[{"mode":4,"attributes":{"POSITION":0,"NORMAL":1,"TEXCOORD_0":2},"indices":3,"material":0}]}]}