{"asset":{"version":"2.0","generator":"Blockbench 4.7.4 glTF exporter"},"scenes":[{"nodes":[5],"name":"blockbench_export"}],"scene":0,"nodes":[{"name":"pc","mesh":0},{"name":"keyboard","mesh":1},{"name":"mouse","mesh":2},{"name":"monitor","mesh":3},{"name":"pc","children":[0,1,2,3]},{"children":[4]}],"bufferViews":[{"buffer":0,"byteOffset":0,"byteLength":288,"target":34962,"byteStride":12},{"buffer":0,"byteOffset":288,"byteLength":288,"target":34962,"byteStride":12},{"buffer":0,"byteOffset":576,"byteLength":192,"target":34962,"byteStride":8},{"buffer":0,"byteOffset":768,"byteLength":72,"target":34963},{"buffer":0,"byteOffset":840,"byteLength":288,"target":34962,"byteStride":12},{"buffer":0,"byteOffset":1128,"byteLength":288,"target":34962,"byteStride":12},{"buffer":0,"byteOffset":1416,"byteLength":192,"target":34962,"byteStride":8},{"buffer":0,"byteOffset":1608,"byteLength":72,"target":34963},{"buffer":0,"byteOffset":1680,"byteLength":480,"target":34962,"byteStride":12},{"buffer":0,"byteOffset":2160,"byteLength":480,"target":34962,"byteStride":12},{"buffer":0,"byteOffset":2640,"byteLength":320,"target":34962,"byteStride":8},{"buffer":0,"byteOffset":2960,"byteLength":120,"target":34963},{"buffer":0,"byteOffset":3080,"byteLength":1440,"target":34962,"byteStride":12},{"buffer":0,"byteOffset":4520,"byteLength":1440,"target":34962,"byteStride":12},{"buffer":0,"byteOffset":5960,"byteLength":960,"target":34962,"byteStride":8},{"buffer":0,"byteOffset":6920,"byteLength":360,"target":34963}],"buffers":[{"byteLength":7280,"uri":"data:application/octet-stream;base64,"}],"accessors":[{"bufferView":0,"componentType":5126,"count":24,"max":[0.375,0.25,0.4375],"min":[-0.375,0,-0.0625],"type":"VEC3"},{"bufferView":1,"componentType":5126,"count":24,"max":[1,1,1],"min":[-1,-1,-1],"type":"VEC3"},{"bufferView":2,"componentType":5126,"count":24,"max":[0.6875,0.609375],"min":[0,0.15625],"type":"VEC2"},{"bufferView":3,"componentType":5123,"count":36,"max":[23],"min":[0],"type":"SCALAR"},{"bufferView":4,"componentType":5126,"count":24,"max":[0.421875,0.08124999701976776,-0.11562500149011612],"min":[-0.265625,0,-0.4593749940395355],"type":"VEC3"},{"bufferView":5,"componentType":5126,"count":24,"max":[1,0.9973658323287964,1],"min":[-1,-1,-1],"type":"VEC3"},{"bufferView":6,"componentType":5126,"count":24,"max":[0.734375,0.53125],"min":[0.171875,0.15625],"type":"VEC2"},{"bufferView":7,"componentType":5123,"count":36,"max":[23],"min":[0],"type":"SCALAR"},{"bufferView":8,"componentType":5126,"count":40,"max":[-0.3125,0.046875,-0.1875],"min":[-0.4375,0,-0.375],"type":"VEC3"},{"bufferView":9,"componentType":5126,"count":40,"max":[1,0.9899494647979736,1],"min":[-1,-1,-0.8944271802902222],"type":"VEC3"},{"bufferView":10,"componentType":5126,"count":40,"max":[0.671875,0.640625],"min":[0.078125,0],"type":"VEC2"},{"bufferView":11,"componentType":5123,"count":60,"max":[39],"min":[0],"type":"SCALAR"},{"bufferView":12,"componentType":5126,"count":120,"max":[0.375,0.9375,0.46875],"min":[-0.375,0.25,-0.078125],"type":"VEC3"},{"bufferView":13,"componentType":5126,"count":120,"max":[1,1,1],"min":[-1,-1,-1],"type":"VEC3"},{"bufferView":14,"componentType":5126,"count":120,"max":[0.71875,0.640625],"min":[0,0],"type":"VEC2"},{"bufferView":15,"componentType":5123,"count":180,"max":[119],"min":[0],"type":"SCALAR"}],"materials":[{"pbrMetallicRoughness":{"metallicFactor":0,"roughnessFactor":1,"baseColorTexture":{"index":0}},"alphaMode":"MASK","alphaCutoff":0.05,"doubleSided":true}],"textures":[{"sampler":0,"source":0,"name":"old_pc"}],"samplers":[{"magFilter":9728,"minFilter":9728,"wrapS":33071,"wrapT":33071}],"images":[{"mimeType":"image/png","uri":"data:image/png;base64,"}],"meshes":[{"primitives":[{"mode":4,"attributes":{"POSITION":0,"NORMAL":1,"TEXCOORD_0":2},"indices":3,"material":0}]},{"primitives":[{"mode":4,"attributes":{"POSITION":4,"NORMAL":5,"TEXCOORD_0":6},"indices":7,"material":0}]},{"primitives":[{"mode":4,"attributes":{"POSITION":8,"NORMAL":9,"TEXCOORD_0":10},"indices":11,"material":0}]},{"primitives":[{"mode":4,"attributes":{"POSITION":12,"NORMAL":13,"TEXCOORD_0":14},"indices":15,"material":0}]}]}