{"asset":{"version":"2.0","generator":"Blockbench 4.6.5 glTF exporter"},"scenes":[{"nodes":[3],"name":"blockbench_export"}],"scene":0,"nodes":[{"name":"cube","mesh":0},{"name":"plane","mesh":1},{"name":"table","children":[0,1]},{"children":[2]}],"bufferViews":[{"buffer":0,"byteOffset":0,"byteLength":12864,"target":34962,"byteStride":12},{"buffer":0,"byteOffset":12864,"byteLength":12864,"target":34962,"byteStride":12},{"buffer":0,"byteOffset":25728,"byteLength":8576,"target":34962,"byteStride":8},{"buffer":0,"byteOffset":34304,"byteLength":2928,"target":34963},{"buffer":0,"byteOffset":37232,"byteLength":48,"target":34962,"byteStride":12},{"buffer":0,"byteOffset":37280,"byteLength":48,"target":34962,"byteStride":12},{"buffer":0,"byteOffset":37328,"byteLength":32,"target":34962,"byteStride":8},{"buffer":0,"byteOffset":37360,"byteLength":12,"target":34963}],"buffers":[{"byteLength":37372,"uri":"data:application/octet-stream;base64,"}],"accessors":[{"bufferView":0,"componentType":5126,"count":1072,"max":[0.46875,1.046875,0.484375],"min":[-1.484375,0,-0.484375],"type":"VEC3"},{"bufferView":1,"componentType":5126,"count":1072,"max":[1,1,1],"min":[-1,-1,-1],"type":"VEC3"},{"bufferView":2,"componentType":5126,"count":1072,"max":[0.9585937261581421,1],"min":[0,0.125],"type":"VEC2"},{"bufferView":3,"componentType":5123,"count":1464,"max":[1071],"min":[0],"type":"SCALAR"},{"bufferView":4,"componentType":5126,"count":4,"max":[0.46875,1.0499999523162842,0.484375],"min":[-1.4874999523162842,1.0499999523162842,-0.484375],"type":"VEC3"},{"bufferView":5,"componentType":5126,"count":4,"max":[0,1,0],"min":[0,1,0],"type":"VEC3"},{"bufferView":6,"componentType":5126,"count":4,"max":[0.484375,1],"min":[0,0.75],"type":"VEC2"},{"bufferView":7,"componentType":5123,"count":6,"max":[3],"min":[0],"type":"SCALAR"}],"materials":[{"pbrMetallicRoughness":{"metallicFactor":0,"roughnessFactor":1,"baseColorTexture":{"index":0}},"alphaMode":"MASK","alphaCutoff":0.05,"doubleSided":true}],"textures":[{"sampler":0,"source":0,"name":"old_large_table"}],"samplers":[{"magFilter":9728,"minFilter":9728,"wrapS":33071,"wrapT":33071}],"images":[{"mimeType":"image/png","uri":"data:image/png;base64,"}],"meshes":[{"primitives":[{"mode":4,"attributes":{"POSITION":0,"NORMAL":1,"TEXCOORD_0":2},"indices":3,"material":0}]},{"primitives":[{"mode":4,"attributes":{"POSITION":4,"NORMAL":5,"TEXCOORD_0":6},"indices":7,"material":0}]}]}