{"asset":{"version":"2.0","generator":"Blockbench 4.6.5 glTF exporter"},"scenes":[{"nodes":[1],"name":"blockbench_export"}],"scene":0,"nodes":[{"name":"cube","mesh":0},{"children":[0]}],"bufferViews":[{"buffer":0,"byteOffset":0,"byteLength":9264,"target":34962,"byteStride":12},{"buffer":0,"byteOffset":9264,"byteLength":9264,"target":34962,"byteStride":12},{"buffer":0,"byteOffset":18528,"byteLength":6176,"target":34962,"byteStride":8},{"buffer":0,"byteOffset":24704,"byteLength":2088,"target":34963},{"buffer":0,"byteOffset":26792,"byteLength":12,"target":34963}],"buffers":[{"byteLength":26804,"uri":"data:application/octet-stream;base64,"}],"accessors":[{"bufferView":0,"componentType":5126,"count":772,"max":[0.5,1.053125023841858,0.5],"min":[-0.5,3.552713599391162e-17,-0.5],"type":"VEC3"},{"bufferView":1,"componentType":5126,"count":772,"max":[1,1,1],"min":[-1,-1,-1],"type":"VEC3"},{"bufferView":2,"componentType":5126,"count":772,"max":[0.8125,1],"min":[0,0.1875],"type":"VEC2"},{"bufferView":3,"componentType":5123,"count":1044,"max":[767],"min":[0],"type":"SCALAR"},{"bufferView":4,"componentType":5123,"count":6,"max":[771],"min":[768],"type":"SCALAR"}],"materials":[{"pbrMetallicRoughness":{"metallicFactor":0,"roughnessFactor":1,"baseColorTexture":{"index":0}},"alphaMode":"MASK","alphaCutoff":0.05,"doubleSided":true},{"pbrMetallicRoughness":{"metallicFactor":0,"roughnessFactor":1,"baseColorTexture":{"index":1}},"alphaMode":"MASK","alphaCutoff":0.05,"doubleSided":true}],"textures":[{"sampler":0,"source":0,"name":"old_table.png"},{"sampler":1,"source":1,"name":"old_table_mat"}],"samplers":[{"magFilter":9728,"minFilter":9728,"wrapS":33071,"wrapT":33071},{"magFilter":9728,"minFilter":9728,"wrapS":33071,"wrapT":33071}],"images":[{"mimeType":"image/png","uri":"data:image/png;base64,"},{"mimeType":"image/png","uri":"data:image/png;base64,"}],"meshes":[{"primitives":[{"mode":4,"attributes":{"POSITION":0,"NORMAL":1,"TEXCOORD_0":2},"indices":3,"material":0},{"mode":4,"attributes":{"POSITION":0,"NORMAL":1,"TEXCOORD_0":2},"indices":4,"material":1}]}]}