{"asset":{"version":"2.0","generator":"Blockbench 4.6.5 glTF exporter"},"scenes":[{"nodes":[1],"name":"blockbench_export"}],"scene":0,"nodes":[{"name":"cylinder","mesh":0},{"children":[0]}],"bufferViews":[{"buffer":0,"byteOffset":0,"byteLength":5664,"target":34962,"byteStride":12},{"buffer":0,"byteOffset":5664,"byteLength":5664,"target":34962,"byteStride":12},{"buffer":0,"byteOffset":11328,"byteLength":3776,"target":34962,"byteStride":8},{"buffer":0,"byteOffset":15104,"byteLength":1296,"target":34963}],"buffers":[{"byteLength":16400,"uri":"data:application/octet-stream;base64,"}],"accessors":[{"bufferView":0,"componentType":5126,"count":472,"max":[0.2849012315273285,0.75,0.28125],"min":[-0.2849012315273285,0,-0.28612175583839417],"type":"VEC3"},{"bufferView":1,"componentType":5126,"count":472,"max":[1,1,1],"min":[-1,-1,-1],"type":"VEC3"},{"bufferView":2,"componentType":5126,"count":472,"max":[0.75,1],"min":[0,0.25],"type":"VEC2"},{"bufferView":3,"componentType":5123,"count":648,"max":[471],"min":[0],"type":"SCALAR"}],"materials":[{"pbrMetallicRoughness":{"metallicFactor":0,"roughnessFactor":1,"baseColorTexture":{"index":0}},"alphaMode":"MASK","alphaCutoff":0.05,"doubleSided":true}],"textures":[{"sampler":0,"source":0,"name":"old_lamp.png"}],"samplers":[{"magFilter":9728,"minFilter":9728,"wrapS":33071,"wrapT":33071}],"images":[{"mimeType":"image/png","uri":"data:image/png;base64,"}],"meshes":[{"primitives":[{"mode":4,"attributes":{"POSITION":0,"NORMAL":1,"TEXCOORD_0":2},"indices":3,"material":0}]}]}