{"asset":{"version":"2.0","generator":"Blockbench 4.5.2 glTF exporter"},"scenes":[{"nodes":[1],"name":"blockbench_export"}],"scene":0,"nodes":[{"name":"tube","mesh":0},{"children":[0]}],"bufferViews":[{"buffer":0,"byteOffset":0,"byteLength":6648,"target":34962,"byteStride":12},{"buffer":0,"byteOffset":6648,"byteLength":6648,"target":34962,"byteStride":12},{"buffer":0,"byteOffset":13296,"byteLength":4432,"target":34962,"byteStride":8},{"buffer":0,"byteOffset":17728,"byteLength":1548,"target":34963}],"buffers":[{"byteLength":19276,"uri":"data:application/octet-stream;base64,"}],"accessors":[{"bufferView":0,"componentType":5126,"count":554,"max":[0.4375,1.0625,0.4375],"min":[-0.4375,0,-0.4375],"type":"VEC3"},{"bufferView":1,"componentType":5126,"count":554,"max":[1,1,1],"min":[-1,-1,-1],"type":"VEC3"},{"bufferView":2,"componentType":5126,"count":554,"max":[0.6875,1],"min":[0,0.25],"type":"VEC2"},{"bufferView":3,"componentType":5123,"count":774,"max":[553],"min":[0],"type":"SCALAR"}],"materials":[{"pbrMetallicRoughness":{"metallicFactor":0,"roughnessFactor":1,"baseColorTexture":{"index":0}},"alphaMode":"MASK","alphaCutoff":0.05,"doubleSided":true}],"textures":[{"sampler":0,"source":0,"name":"plant_texture.png"}],"samplers":[{"magFilter":9728,"minFilter":9728,"wrapS":33071,"wrapT":33071}],"images":[{"mimeType":"image/png","uri":"data:image/png;base64,"}],"meshes":[{"primitives":[{"mode":4,"attributes":{"POSITION":0,"NORMAL":1,"TEXCOORD_0":2},"indices":3,"material":0}]}]}