{"asset":{"version":"2.0","generator":"Blockbench 4.8.3 glTF exporter"},"scenes":[{"nodes":[1],"name":"blockbench_export"}],"scene":0,"nodes":[{"name":"sphere","mesh":0},{"children":[0]}],"bufferViews":[{"buffer":0,"byteOffset":0,"byteLength":21552,"target":34962,"byteStride":12},{"buffer":0,"byteOffset":21552,"byteLength":21552,"target":34962,"byteStride":12},{"buffer":0,"byteOffset":43104,"byteLength":14368,"target":34962,"byteStride":8},{"buffer":0,"byteOffset":57472,"byteLength":5280,"target":34963}],"buffers":[{"byteLength":62752,"uri":"data:application/octet-stream;base64,"}],"accessors":[{"bufferView":0,"componentType":5126,"count":1796,"max":[0.4021001160144806,0.625,0.30885443091392517],"min":[-0.375,0,-0.38958996534347534],"type":"VEC3"},{"bufferView":1,"componentType":5126,"count":1796,"max":[1,1,1],"min":[-1,-1,-1],"type":"VEC3"},{"bufferView":2,"componentType":5126,"count":1796,"max":[0.671875,0.671875],"min":[0,0],"type":"VEC2"},{"bufferView":3,"componentType":5123,"count":2640,"max":[1795],"min":[0],"type":"SCALAR"}],"materials":[{"pbrMetallicRoughness":{"metallicFactor":0,"roughnessFactor":1,"baseColorTexture":{"index":0}},"alphaMode":"MASK","alphaCutoff":0.05,"doubleSided":true}],"textures":[{"sampler":0,"source":0,"name":"small_cactaceae.png"}],"samplers":[{"magFilter":9728,"minFilter":9728,"wrapS":33071,"wrapT":33071}],"images":[{"mimeType":"image/png","uri":"data:image/png;base64,"}],"meshes":[{"primitives":[{"mode":4,"attributes":{"POSITION":0,"NORMAL":1,"TEXCOORD_0":2},"indices":3,"material":0}]}]}