{"asset":{"version":"2.0","generator":"Blockbench 4.5.2 glTF exporter"},"scenes":[{"nodes":[1],"name":"blockbench_export"}],"scene":0,"nodes":[{"name":"tube","mesh":0},{"children":[0]}],"bufferViews":[{"buffer":0,"byteOffset":0,"byteLength":2088,"target":34962,"byteStride":12},{"buffer":0,"byteOffset":2088,"byteLength":2088,"target":34962,"byteStride":12},{"buffer":0,"byteOffset":4176,"byteLength":1392,"target":34962,"byteStride":8},{"buffer":0,"byteOffset":5568,"byteLength":480,"target":34963}],"buffers":[{"byteLength":6048,"uri":"data:application/octet-stream;base64,"}],"accessors":[{"bufferView":0,"componentType":5126,"count":174,"max":[0.4571067690849304,0.19687500596046448,0.4571067690849304],"min":[-0.4571067690849304,0.02500000037252903,-0.4571067690849304],"type":"VEC3"},{"bufferView":1,"componentType":5126,"count":174,"max":[1,1,1],"min":[-1,-1,-1],"type":"VEC3"},{"bufferView":2,"componentType":5126,"count":174,"max":[0.984375,0.984375],"min":[0.015625,0.828125],"type":"VEC2"},{"bufferView":3,"componentType":5123,"count":240,"max":[173],"min":[0],"type":"SCALAR"}],"materials":[{"pbrMetallicRoughness":{"metallicFactor":0,"roughnessFactor":1,"baseColorTexture":{"index":0}},"alphaMode":"MASK","alphaCutoff":0.05,"doubleSided":true}],"textures":[{"sampler":0,"source":0,"name":"texture"}],"samplers":[{"magFilter":9728,"minFilter":9728,"wrapS":33071,"wrapT":33071}],"images":[{"mimeType":"image/png","uri":"data:image/png;base64,"}],"meshes":[{"primitives":[{"mode":4,"attributes":{"POSITION":0,"NORMAL":1,"TEXCOORD_0":2},"indices":3,"material":0}]}]}