{"extensionsUsed" : ["KHR_materials_unlit", "KHR_texture_transform", "VRM"], "accessors" : [{"bufferView" : 0, "byteOffset" : 0, "componentType" : 5123, "count" : 168, "type" : "SCALAR", "max" : [154], "min" : [0]}, {"bufferView" : 1, "byteOffset" : 0, "componentType" : 5126, "count" : 155, "type" : "VEC3", "max" : [0.13019999861717224, 0.1328039914369583, 0.13019999861717224], "min" : [-0.13019999861717224, 0, -0.13019999861717224], "name" : "POSITION"}, {"bufferView" : 1, "byteOffset" : 12, "componentType" : 5126, "count" : 155, "type" : "VEC3", "max" : [1.0000044107437134, 1.0000044107437134, 1.0000044107437134], "min" : [-1.0000044107437134, -1.0000044107437134, -1.0000044107437134], "name" : "NORMAL"}, {"bufferView" : 1, "byteOffset" : 24, "componentType" : 5126, "count" : 155, "type" : "VEC2", "max" : [5.125984191894531, 6.125984191894531], "min" : [-5.125984191894531, -4.228503704071045], "name" : "TEXCOORD_0"}, {"bufferView" : 0, "byteOffset" : 336, "componentType" : 5123, "count" : 126, "type" : "SCALAR", "max" : [125], "min" : [0]}, {"bufferView" : 2, "byteOffset" : 0, "componentType" : 5126, "count" : 126, "type" : "VEC3", "max" : [0.13019999861717224, 0.1328039914369583, 0.13019999861717224], "min" : [-0.13019999861717224, 0, -0.13019999861717224], "name" : "POSITION"}, {"bufferView" : 2, "byteOffset" : 12, "componentType" : 5126, "count" : 126, "type" : "VEC3", "max" : [1.0000044107437134, 1.0000044107437134, 1.0000044107437134], "min" : [-1.0000044107437134, 0, -1.0000044107437134], "name" : "NORMAL"}, {"bufferView" : 2, "byteOffset" : 24, "componentType" : 5126, "count" : 126, "type" : "VEC2", "max" : [5.125984191894531, 3.891690492630005], "min" : [-5.125984191894531, -4.377597332000732], "name" : "TEXCOORD_0"}, {"bufferView" : 0, "byteOffset" : 588, "componentType" : 5123, "count" : 30, "type" : "SCALAR", "max" : [29], "min" : [0]}, {"bufferView" : 3, "byteOffset" : 0, "componentType" : 5126, "count" : 30, "type" : "VEC3", "max" : [0.028800001367926598, 0.1328039914369583, 0.12438750267028809], "min" : [-0.028800001367926598, 0.08780399709939957, 0.10694999992847443], "name" : "POSITION"}, {"bufferView" : 3, "byteOffset" : 12, "componentType" : 5126, "count" : 30, "type" : "VEC3", "max" : [1.0000044107437134, 1.0000044107437134, 1.0000044107437134], "min" : [-1.0000044107437134, -1.0000044107437134, -0], "name" : "NORMAL"}, {"bufferView" : 3, "byteOffset" : 24, "componentType" : 5126, "count" : 30, "type" : "VEC2", "max" : [4.897145748138428, 5.897145748138428], "min" : [-4.897145748138428, -4.228503704071045], "name" : "TEXCOORD_0"}, {"bufferView" : 0, "byteOffset" : 648, "componentType" : 5123, "count" : 240, "type" : "SCALAR", "max" : [214], "min" : [0]}, {"bufferView" : 4, "byteOffset" : 0, "componentType" : 5126, "count" : 215, "type" : "VEC3", "max" : [0.12438750267028809, 0.12999999523162842, 0.24877500534057617], "min" : [-0.12438750267028809, 0, -0], "name" : "POSITION"}, {"bufferView" : 4, "byteOffset" : 12, "componentType" : 5126, "count" : 215, "type" : "VEC3", "max" : [1.0000044107437134, 1.0000044107437134, 0.9360381364822388], "min" : [-1.0000044107437134, -1.0000044107437134, -0.9360381364822388], "name" : "NORMAL"}, {"bufferView" : 4, "byteOffset" : 24, "componentType" : 5126, "count" : 215, "type" : "VEC2", "max" : [9.794291496276855, 4.5395660400390625], "min" : [-9.794291496276855, -10.794291496276855], "name" : "TEXCOORD_0"}, {"bufferView" : 0, "byteOffset" : 1128, "componentType" : 5123, "count" : 240, "type" : "SCALAR", "max" : [227], "min" : [0]}, {"bufferView" : 5, "byteOffset" : 0, "componentType" : 5126, "count" : 228, "type" : "VEC3", "max" : [0.12438750267028809, 0.09495067596435547, 0.24877500534057617], "min" : [-0.12438750267028809, 0, -0], "name" : "POSITION"}, {"bufferView" : 5, "byteOffset" : 12, "componentType" : 5126, "count" : 228, "type" : "VEC3", "max" : [1.0000044107437134, 0.09033487737178802, 0.9959158897399902], "min" : [-1.0000044107437134, -1.0000044107437134, -0.9959158897399902], "name" : "NORMAL"}, {"bufferView" : 5, "byteOffset" : 24, "componentType" : 5126, "count" : 228, "type" : "VEC2", "max" : [8.421259880065918, 4.354424953460693], "min" : [-8.421259880065918, -6.296411037445068], "name" : "TEXCOORD_0"}], "asset" : {"generator" : "Aspose.3D 22.10", "version" : "2.0"}, "buffers" : [{"uri" : "data:application/octet-stream;base64,", "byteLength" : 27360}], "bufferViews" : [{"buffer" : 0, "byteOffset" : 0, "byteLength" : 1608, "target" : 34963}, {"buffer" : 0, "byteOffset" : 1612, "byteLength" : 5376, "byteStride" : 32, "target" : 34962}, {"buffer" : 0, "byteOffset" : 6992, "byteLength" : 4032, "byteStride" : 32, "target" : 34962}, {"buffer" : 0, "byteOffset" : 11028, "byteLength" : 960, "byteStride" : 32, "target" : 34962}, {"buffer" : 0, "byteOffset" : 11992, "byteLength" : 7680, "byteStride" : 32, "target" : 34962}, {"buffer" : 0, "byteOffset" : 19676, "byteLength" : 7680, "byteStride" : 32, "target" : 34962}], "materials" : [{"name" : "woodDark", "pbrMetallicRoughness" : {"baseColorFactor" : [0.5040224, 0.178314611, 0.0525598638, 1], "metallicFactor" : 1, "roughnessFactor" : 1}, "emissiveFactor" : [0, 0, 0], "alphaMode" : "OPAQUE", "doubleSided" : false}, {"name" : "wood", "pbrMetallicRoughness" : {"baseColorFactor" : [0.876034439, 0.304788262, 0.08615085, 1], "metallicFactor" : 1, "roughnessFactor" : 1}, "emissiveFactor" : [0, 0, 0], "alphaMode" : "OPAQUE", "doubleSided" : false}, {"name" : "metal", "pbrMetallicRoughness" : {"baseColorFactor" : [0.5594419, 0.597751, 0.798659861, 1], "metallicFactor" : 1, "roughnessFactor" : 1}, "emissiveFactor" : [0, 0, 0], "alphaMode" : "OPAQUE", "doubleSided" : false}, {"name" : "wood", "pbrMetallicRoughness" : {"baseColorFactor" : [0.876034439, 0.304788262, 0.08615085, 1], "metallicFactor" : 1, "roughnessFactor" : 1}, "emissiveFactor" : [0, 0, 0], "alphaMode" : "OPAQUE", "doubleSided" : false}, {"name" : "woodDark", "pbrMetallicRoughness" : {"baseColorFactor" : [0.5040224, 0.178314611, 0.0525598638, 1], "metallicFactor" : 1, "roughnessFactor" : 1}, "emissiveFactor" : [0, 0, 0], "alphaMode" : "OPAQUE", "doubleSided" : false}], "meshes" : [{"primitives" : [{"attributes" : {"POSITION" : 1, "NORMAL" : 2, "TEXCOORD_0" : 3}, "indices" : 0, "material" : 0, "mode" : 4}, {"attributes" : {"POSITION" : 5, "NORMAL" : 6, "TEXCOORD_0" : 7}, "indices" : 4, "material" : 1, "mode" : 4}, {"attributes" : {"POSITION" : 9, "NORMAL" : 10, "TEXCOORD_0" : 11}, "indices" : 8, "material" : 2, "mode" : 4}]}, {"primitives" : [{"attributes" : {"POSITION" : 13, "NORMAL" : 14, "TEXCOORD_0" : 15}, "indices" : 12, "material" : 3, "mode" : 4}, {"attributes" : {"POSITION" : 17, "NORMAL" : 18, "TEXCOORD_0" : 19}, "indices" : 16, "material" : 4, "mode" : 4}]}], "nodes" : [{"matrix" : [1, 0, 0, 0, 0, 1, 0, 0, 0, 0, 1, 0, -2.88764564E-15, 0.132803991, -0.1243875, 1], "mesh" : 1, "name" : "lid"}, {"children" : [0], "mesh" : 0, "name" : "chest"}], "scene" : 0, "scenes" : [{"nodes" : [1]}], "extensions" : {"VRM" : {"blendShapeMaster" : {"blendShapeGroups" : []}, "exporterVersion" : "UniVRM-0.98.0", "firstPerson" : {"firstPersonBoneOffset" : {"x" : 0, "y" : 0, "z" : 0}, "lookAtHorizontalInner" : {"xRange" : 90, "yRange" : 10}, "lookAtHorizontalOuter" : {"xRange" : 90, "yRange" : 10}, "lookAtTypeName" : "Bone", "lookAtVerticalDown" : {"xRange" : 90, "yRange" : 10}, "lookAtVerticalUp" : {"xRange" : 90, "yRange" : 10}, "meshAnnotations" : []}, "humanoid" : {"armStretch" : 0.05, "feetSpacing" : 0, "hasTranslationDoF" : false, "humanBones" : [], "legStretch" : 0.05, "lowerArmTwist" : 0.5, "lowerLegTwist" : 0.5, "upperArmTwist" : 0.5, "upperLegTwist" : 0.5}, "materialProperties" : [{"floatProperties" : {}, "keywordMap" : {}, "name" : "woodDark", "renderQueue" : 2000, "shader" : "VRM_USE_GLTFSHADER", "tagMap" : {}, "textureProperties" : {}, "vectorProperties" : {}}, {"floatProperties" : {}, "keywordMap" : {}, "name" : "wood", "renderQueue" : 2000, "shader" : "VRM_USE_GLTFSHADER", "tagMap" : {}, "textureProperties" : {}, "vectorProperties" : {}}, {"floatProperties" : {}, "keywordMap" : {}, "name" : "metal", "renderQueue" : 2000, "shader" : "VRM_USE_GLTFSHADER", "tagMap" : {}, "textureProperties" : {}, "vectorProperties" : {}}], "meta" : {"allowedUserName" : "OnlyAuthor", "commercialUssageName" : "Disallow", "licenseName" : "Redistribution_Prohibited", "sexualUssageName" : "Disallow", "violentUssageName" : "Disallow"}, "secondaryAnimation" : {"boneGroups" : [], "colliderGroups" : []}, "specVersion" : "0.0"}}}