{"asset":{"version":"2.0","generator":"Blockbench 4.4.2 glTF exporter"},"scenes":[{"nodes":[11],"name":"blockbench_export"}],"scene":0,"nodes":[{"name":"cylinder","mesh":0},{"name":"cylinder","mesh":1},{"name":"cylinder","mesh":2},{"name":"cylinder","mesh":3},{"name":"legs","children":[0,1,2,3]},{"name":"cube","mesh":4},{"rotation":[-0.06540312923014306,0,0,0.9978589232386035],"translation":[0,0.625,-0.375],"name":"cube","mesh":5},{"name":"cylinder","mesh":6},{"name":"cylinder","mesh":7},{"name":"cube","mesh":8},{"name":"top_part","children":[5,6,7,8,9]},{"children":[4,10]}],"bufferViews":[{"buffer":0,"byteOffset":0,"byteLength":2880,"target":34962,"byteStride":12},{"buffer":0,"byteOffset":2880,"byteLength":2880,"target":34962,"byteStride":12},{"buffer":0,"byteOffset":5760,"byteLength":1920,"target":34962,"byteStride":8},{"buffer":0,"byteOffset":7680,"byteLength":576,"target":34963},{"buffer":0,"byteOffset":8256,"byteLength":2880,"target":34962,"byteStride":12},{"buffer":0,"byteOffset":11136,"byteLength":2880,"target":34962,"byteStride":12},{"buffer":0,"byteOffset":14016,"byteLength":1920,"target":34962,"byteStride":8},{"buffer":0,"byteOffset":15936,"byteLength":576,"target":34963},{"buffer":0,"byteOffset":16512,"byteLength":2880,"target":34962,"byteStride":12},{"buffer":0,"byteOffset":19392,"byteLength":2880,"target":34962,"byteStride":12},{"buffer":0,"byteOffset":22272,"byteLength":1920,"target":34962,"byteStride":8},{"buffer":0,"byteOffset":24192,"byteLength":576,"target":34963},{"buffer":0,"byteOffset":24768,"byteLength":2880,"target":34962,"byteStride":12},{"buffer":0,"byteOffset":27648,"byteLength":2880,"target":34962,"byteStride":12},{"buffer":0,"byteOffset":30528,"byteLength":1920,"target":34962,"byteStride":8},{"buffer":0,"byteOffset":32448,"byteLength":576,"target":34963},{"buffer":0,"byteOffset":33024,"byteLength":288,"target":34962,"byteStride":12},{"buffer":0,"byteOffset":33312,"byteLength":288,"target":34962,"byteStride":12},{"buffer":0,"byteOffset":33600,"byteLength":192,"target":34962,"byteStride":8},{"buffer":0,"byteOffset":33792,"byteLength":72,"target":34963},{"buffer":0,"byteOffset":33864,"byteLength":288,"target":34962,"byteStride":12},{"buffer":0,"byteOffset":34152,"byteLength":288,"target":34962,"byteStride":12},{"buffer":0,"byteOffset":34440,"byteLength":192,"target":34962,"byteStride":8},{"buffer":0,"byteOffset":34632,"byteLength":72,"target":34963},{"buffer":0,"byteOffset":34704,"byteLength":2880,"target":34962,"byteStride":12},{"buffer":0,"byteOffset":37584,"byteLength":2880,"target":34962,"byteStride":12},{"buffer":0,"byteOffset":40464,"byteLength":1920,"target":34962,"byteStride":8},{"buffer":0,"byteOffset":42384,"byteLength":576,"target":34963},{"buffer":0,"byteOffset":42960,"byteLength":2880,"target":34962,"byteStride":12},{"buffer":0,"byteOffset":45840,"byteLength":2880,"target":34962,"byteStride":12},{"buffer":0,"byteOffset":48720,"byteLength":1920,"target":34962,"byteStride":8},{"buffer":0,"byteOffset":50640,"byteLength":576,"target":34963},{"buffer":0,"byteOffset":51216,"byteLength":288,"target":34962,"byteStride":12},{"buffer":0,"byteOffset":51504,"byteLength":288,"target":34962,"byteStride":12},{"buffer":0,"byteOffset":51792,"byteLength":192,"target":34962,"byteStride":8},{"buffer":0,"byteOffset":51984,"byteLength":72,"target":34963}],"buffers":[{"byteLength":52056,"uri":"data:application/octet-stream;base64,"}],"accessors":[{"bufferView":0,"componentType":5126,"count":240,"max":[0.375,0.125,-0.25],"min":[0.25,0,-0.375],"type":"VEC3"},{"bufferView":1,"componentType":5126,"count":240,"max":[1,1,1],"min":[-1,-1,-1],"type":"VEC3"},{"bufferView":2,"componentType":5126,"count":240,"max":[0.25215715169906616,1],"min":[0,0.7478428483009338],"type":"VEC2"},{"bufferView":3,"componentType":5123,"count":288,"max":[239],"min":[0],"type":"SCALAR"},{"bufferView":4,"componentType":5126,"count":240,"max":[-0.25,0.125,0.375],"min":[-0.375,0,0.25],"type":"VEC3"},{"bufferView":5,"componentType":5126,"count":240,"max":[1,1,1],"min":[-1,-1,-1],"type":"VEC3"},{"bufferView":6,"componentType":5126,"count":240,"max":[0.25215715169906616,1],"min":[0,0.7478428483009338],"type":"VEC2"},{"bufferView":7,"componentType":5123,"count":288,"max":[239],"min":[0],"type":"SCALAR"},{"bufferView":8,"componentType":5126,"count":240,"max":[0.375,0.125,0.375],"min":[0.25,0,0.25],"type":"VEC3"},{"bufferView":9,"componentType":5126,"count":240,"max":[1,1,1],"min":[-1,-1,-1],"type":"VEC3"},{"bufferView":10,"componentType":5126,"count":240,"max":[0.25215715169906616,1],"min":[0,0.7478428483009338],"type":"VEC2"},{"bufferView":11,"componentType":5123,"count":288,"max":[239],"min":[0],"type":"SCALAR"},{"bufferView":12,"componentType":5126,"count":240,"max":[-0.25,0.125,-0.25],"min":[-0.375,0,-0.375],"type":"VEC3"},{"bufferView":13,"componentType":5126,"count":240,"max":[1,1,1],"min":[-1,-1,-1],"type":"VEC3"},{"bufferView":14,"componentType":5126,"count":240,"max":[0.25215715169906616,1],"min":[0,0.7478428483009338],"type":"VEC2"},{"bufferView":15,"componentType":5123,"count":288,"max":[239],"min":[0],"type":"SCALAR"},{"bufferView":16,"componentType":5126,"count":24,"max":[0.390625,0.1875,0.390625],"min":[-0.390625,0.125,-0.390625],"type":"VEC3"},{"bufferView":17,"componentType":5126,"count":24,"max":[1,1,1],"min":[-1,-1,-1],"type":"VEC3"},{"bufferView":18,"componentType":5126,"count":24,"max":[0.796875,1],"min":[0,0.203125],"type":"VEC2"},{"bufferView":19,"componentType":5123,"count":36,"max":[23],"min":[0],"type":"SCALAR"},{"bufferView":20,"componentType":5126,"count":24,"max":[0.453125,0.515625,0.0625],"min":[-0.453125,-0.265625,-0.1875],"type":"VEC3"},{"bufferView":21,"componentType":5126,"count":24,"max":[1,1,1],"min":[-1,-1,-1],"type":"VEC3"},{"bufferView":22,"componentType":5126,"count":24,"max":[0.921875,1],"min":[0,0.203125],"type":"VEC2"},{"bufferView":23,"componentType":5123,"count":36,"max":[23],"min":[0],"type":"SCALAR"},{"bufferView":24,"componentType":5126,"count":240,"max":[-0.3125,0.625,0.46875],"min":[-0.5625,0.375,-0.46875],"type":"VEC3"},{"bufferView":25,"componentType":5126,"count":240,"max":[1,1,1],"min":[-1,-1,-1],"type":"VEC3"},{"bufferView":26,"componentType":5126,"count":240,"max":[0.25215715169906616,1],"min":[0,0.7478428483009338],"type":"VEC2"},{"bufferView":27,"componentType":5123,"count":288,"max":[239],"min":[0],"type":"SCALAR"},{"bufferView":28,"componentType":5126,"count":240,"max":[0.5625,0.625,0.46875],"min":[0.3125,0.375,-0.46875],"type":"VEC3"},{"bufferView":29,"componentType":5126,"count":240,"max":[1,1,1],"min":[-1,-1,-1],"type":"VEC3"},{"bufferView":30,"componentType":5126,"count":240,"max":[0.25215715169906616,1],"min":[0,0.7478428483009338],"type":"VEC2"},{"bufferView":31,"componentType":5123,"count":288,"max":[239],"min":[0],"type":"SCALAR"},{"bufferView":32,"componentType":5126,"count":24,"max":[0.4375,0.4375,0.4375],"min":[-0.4375,0.1875,-0.4375],"type":"VEC3"},{"bufferView":33,"componentType":5126,"count":24,"max":[1,1,1],"min":[-1,-1,-1],"type":"VEC3"},{"bufferView":34,"componentType":5126,"count":24,"max":[0.4375,1],"min":[0,0.234375],"type":"VEC2"},{"bufferView":35,"componentType":5123,"count":36,"max":[23],"min":[0],"type":"SCALAR"}],"materials":[{"pbrMetallicRoughness":{"metallicFactor":0,"roughnessFactor":1,"baseColorTexture":{"index":0}},"alphaMode":"MASK","alphaCutoff":0.05,"doubleSided":true},{"pbrMetallicRoughness":{"metallicFactor":0,"roughnessFactor":1,"baseColorTexture":{"index":1}},"alphaMode":"MASK","alphaCutoff":0.05,"doubleSided":true}],"textures":[{"sampler":0,"source":0,"name":"wood"},{"sampler":1,"source":1,"name":"leather"}],"samplers":[{"magFilter":9728,"minFilter":9728,"wrapS":33071,"wrapT":33071},{"magFilter":9728,"minFilter":9728,"wrapS":33071,"wrapT":33071}],"images":[{"mimeType":"image/png","uri":"data:image/png;base64,"},{"mimeType":"image/png","uri":"data:image/png;base64,"}],"meshes":[{"primitives":[{"mode":4,"attributes":{"POSITION":0,"NORMAL":1,"TEXCOORD_0":2},"indices":3,"material":0}]},{"primitives":[{"mode":4,"attributes":{"POSITION":4,"NORMAL":5,"TEXCOORD_0":6},"indices":7,"material":0}]},{"primitives":[{"mode":4,"attributes":{"POSITION":8,"NORMAL":9,"TEXCOORD_0":10},"indices":11,"material":0}]},{"primitives":[{"mode":4,"attributes":{"POSITION":12,"NORMAL":13,"TEXCOORD_0":14},"indices":15,"material":0}]},{"primitives":[{"mode":4,"attributes":{"POSITION":16,"NORMAL":17,"TEXCOORD_0":18},"indices":19,"material":0}]},{"primitives":[{"mode":4,"attributes":{"POSITION":20,"NORMAL":21,"TEXCOORD_0":22},"indices":23,"material":1}]},{"primitives":[{"mode":4,"attributes":{"POSITION":24,"NORMAL":25,"TEXCOORD_0":26},"indices":27,"material":1}]},{"primitives":[{"mode":4,"attributes":{"POSITION":28,"NORMAL":29,"TEXCOORD_0":30},"indices":31,"material":1}]},{"primitives":[{"mode":4,"attributes":{"POSITION":32,"NORMAL":33,"TEXCOORD_0":34},"indices":35,"material":1}]}]}